<?xml version="1.0" encoding="UTF-8"?><svg id="Layer_1" xmlns="http://www.w3.org/2000/svg" viewBox="0 0 1000 1000"><path d="M777.9,854.48L145.65,222.23l12.31-12.31,632.25,632.25s49.25,49.25,110.81-12.31c61.56-61.56,12.31-110.81,12.31-110.81L281.09,86.79l12.31-12.31,209.86,209.86,55.41-55.41,154.97-154.97,12.31,12.31-210.38,210.38,123.13,123.13,210.38-210.38,12.31,12.31-210.38,210.38,55.41,55.41,210.38-210.38s49.25-49.25-12.31-110.81c-61.56-61.56-110.81-12.31-110.81-12.31l-161.12,161.12-12.31-12.31,161.12-161.12s49.25-49.25-12.31-110.81c-61.56-61.56-110.81-12.31-110.81-12.31l-154.97,154.97L348.81,19.07s-49.25-49.25-110.81,12.31c-61.56,61.56-12.31,110.81-12.31,110.81l632.25,632.25-12.31,12.31L213.37,154.51s-49.25-49.25-110.81,12.31c-61.56,61.56-12.31,110.81-12.31,110.81l632.25,632.25-12.31,12.31-209.97-209.97-213.62,213.62-12.31-12.31,213.62-213.62-123.13-123.13-213.62,213.62-12.31-12.31,213.62-213.62-55.41-55.41-213.62,213.62s-49.25,49.25,12.31,110.81c61.56,61.56,110.81,12.31,110.81,12.31l164.37-164.37,12.31,12.31-164.37,164.37s-49.25,49.25,12.31,110.81c61.56,61.56,110.81,12.31,110.81,12.31l158.21-158.21,154.56,154.56s49.25,49.25,110.81-12.31c61.56-61.56,12.31-110.81,12.31-110.81Z" fill="#fff"/></svg>